<svg width="24" height="24" viewBox="0 0 24 24" fill="none" xmlns="http://www.w3.org/2000/svg">
  <path d="M12 2C8.5 2 6 4.5 6 8C6 8.8 6.2 9.5 6.5 10.2L4 12L6 14L8.5 12.2C9.2 12.8 10 13.2 10.8 13.4L11 16H13L13.2 13.4C14 13.2 14.8 12.8 15.5 12.2L18 14L20 12L17.5 10.2C17.8 9.5 18 8.8 18 8C18 4.5 15.5 2 12 2Z" fill="currentColor"/>
  <circle cx="10" cy="7.5" r="1" fill="white"/>
  <circle cx="14" cy="7.5" r="1" fill="white"/>
  <path d="M12 9.5L13 11H11L12 9.5Z" fill="white"/>
  <path d="M9 16L12 22L15 16H9Z" fill="currentColor"/>
</svg>